# Blender v2.82 (sub 7) OBJ File: ''
# www.blender.org
mtllib egg_carton.mtl
o egg_carton_collision
v -0.153000 0.051000 0.000000
v -0.153000 -0.051000 0.070000
v -0.153000 0.051000 0.070000
v -0.153000 -0.051000 0.000000
v 0.153000 -0.051000 0.070000
v 0.051000 -0.051000 -0.000000
v 0.153000 -0.051000 -0.000000
v 0.051000 -0.051000 0.070000
v -0.051000 -0.051000 0.000000
v -0.051000 -0.051000 0.070000
v -0.153000 -0.051000 0.000000
v -0.153000 -0.051000 0.070000
v 0.153000 -0.051000 -0.000000
v 0.153000 0.051000 0.070000
v 0.153000 -0.051000 0.070000
v 0.153000 0.051000 -0.000000
v 0.051000 0.051000 0.070000
v 0.153000 0.051000 -0.000000
v 0.051000 0.051000 -0.000000
v -0.051000 0.051000 0.070000
v -0.051000 0.051000 0.000000
v -0.153000 0.051000 0.070000
v -0.153000 0.051000 0.000000
v 0.153000 0.051000 0.070000
v -0.051000 0.051000 0.070000
v -0.153000 -0.051000 0.070000
v -0.051000 -0.051000 0.070000
v 0.153000 0.051000 0.070000
v 0.051000 -0.051000 0.070000
v 0.153000 -0.051000 0.070000
v 0.051000 0.051000 0.070000
v -0.153000 0.051000 0.070000
v -0.051000 0.051000 0.000000
v -0.153000 -0.051000 0.000000
v -0.153000 0.051000 0.000000
v 0.051000 0.051000 -0.000000
v -0.051000 -0.051000 0.000000
v 0.153000 0.051000 -0.000000
v 0.051000 -0.051000 -0.000000
v 0.153000 -0.051000 -0.000000
vt 0.102000 -0.070000
vt 0.000000 0.000000
vt 0.102000 0.000000
vt 0.000000 -0.070000
vt 0.000000 0.000000
vt 0.102000 -0.070000
vt 0.000000 -0.070000
vt 0.102000 0.000000
vt 0.204000 -0.070000
vt 0.204000 0.000000
vt 0.306000 -0.070000
vt 0.306000 0.000000
vt 0.000000 -0.070000
vt -0.102000 0.000000
vt 0.000000 0.000000
vt -0.102000 -0.070000
vt -0.102000 0.000000
vt 0.000000 -0.070000
vt -0.102000 -0.070000
vt -0.204000 0.000000
vt -0.204000 -0.070000
vt -0.306000 0.000000
vt -0.306000 -0.070000
vt 0.000000 0.000000
vt 0.051000 0.051000
vt -0.051000 0.153000
vt -0.051000 0.051000
vt 0.051000 -0.153000
vt -0.051000 -0.051000
vt -0.051000 -0.153000
vt 0.051000 -0.051000
vt 0.051000 0.153000
vt 0.051000 0.051000
vt -0.051000 0.153000
vt 0.051000 0.153000
vt 0.051000 -0.051000
vt -0.051000 0.051000
vt 0.051000 -0.153000
vt -0.051000 -0.051000
vt -0.051000 -0.153000
vn -1.0000 0.0000 0.0000
vn 0.0000 -1.0000 0.0000
vn 1.0000 0.0000 0.0000
vn 0.0000 1.0000 0.0000
vn 0.0000 0.0000 1.0000
vn -0.0000 0.0000 -1.0000
usemtl 1
s 1
f 1/1/1 2/2/1 3/3/1
f 2/2/1 1/1/1 4/4/1
f 5/5/2 6/6/2 7/7/2
f 8/8/2 9/9/2 6/6/2
f 10/10/2 11/11/2 9/9/2
f 11/11/2 10/10/2 12/12/2
f 9/9/2 8/8/2 10/10/2
f 6/6/2 5/5/2 8/8/2
f 13/13/3 14/14/3 15/15/3
f 14/14/3 13/13/3 16/16/3
f 17/17/4 18/18/4 19/19/4
f 20/20/4 19/19/4 21/21/4
f 22/22/4 21/21/4 23/23/4
f 21/21/4 22/22/4 20/20/4
f 18/18/4 17/17/4 24/24/4
f 19/19/4 20/20/4 17/17/4
f 25/25/5 26/26/5 27/27/5
f 28/28/5 29/29/5 30/30/5
f 31/31/5 27/27/5 29/29/5
f 26/26/5 25/25/5 32/32/5
f 27/27/5 31/31/5 25/25/5
f 29/29/5 28/28/5 31/31/5
f 33/33/6 34/34/6 35/35/6
f 36/36/6 37/37/6 33/33/6
f 38/38/6 39/39/6 36/36/6
f 39/39/6 38/38/6 40/40/6
f 37/37/6 36/36/6 39/39/6
f 34/34/6 33/33/6 37/37/6
