# Blender v2.83.1 OBJ File: 'checkout.blend'
# www.blender.org
mtllib checkout.mtl
o Cube_Cube.001
v -0.150000 0.000000 0.250000
v -0.150000 0.700000 0.250000
v -0.150000 0.000000 -0.250000
v -0.150000 0.700000 -0.250000
v 0.150000 0.000000 0.250000
v 0.150000 0.700000 0.250000
v 0.150000 0.000000 -0.250000
v 0.150000 0.700000 -0.250000
v 0.150000 0.700000 0.250000
v 0.150000 0.700000 -0.250000
v -2.150000 0.700000 0.250000
v -2.150000 0.700000 -0.250000
v -2.900000 0.700000 0.250000
v -2.900000 0.700000 -0.250000
v -2.150000 0.700000 0.750000
v -2.900000 0.700000 0.750000
v -2.150000 0.000000 0.250000
v -2.150000 0.000000 -0.250000
v -2.900000 0.000000 0.250000
v -2.900000 0.000000 -0.250000
v -2.900000 0.000000 0.750000
v -2.150000 0.000000 0.750000
v -0.150000 0.700000 0.325000
v -0.150000 0.700000 -0.325000
v -2.150000 0.700000 0.325000
v -2.150000 0.700000 -0.325000
v 0.231827 0.700000 0.325000
v 0.231827 0.700000 -0.325000
v -2.900000 0.700000 -0.250000
v -2.899571 0.700000 -0.325000
v -0.150000 0.850000 0.250000
v -0.150000 0.850000 -0.250000
v 0.150000 0.850000 0.250000
v 0.150000 0.850000 -0.250000
v -2.150000 0.850000 0.250000
v -2.150000 0.850000 -0.250000
v -2.900000 0.850000 0.250000
v -2.150000 0.850000 0.750000
v -2.900000 0.850000 0.750000
v -0.150000 0.850000 0.325000
v -0.150000 0.850000 -0.325000
v -2.150000 0.850000 0.325000
v -2.150000 0.850000 -0.325000
v 0.231827 0.850000 0.325000
v 0.231827 0.850000 -0.325000
v -2.900000 0.850000 -0.250000
v -2.899571 0.850000 -0.325000
v 0.150000 0.770040 0.250000
v 0.150000 0.770040 -0.250000
v 0.231827 0.770040 0.325000
v 0.231827 0.770040 -0.325000
v 0.080967 0.842822 0.238310
v -2.128549 0.815675 0.238310
v -2.134193 0.805115 0.238310
v -2.137669 0.793656 0.238310
v -2.138843 0.781740 0.238310
v -2.137669 0.769823 0.238310
v -2.134193 0.758365 0.238310
v -2.128549 0.747804 0.238310
v -2.120953 0.738548 0.238310
v -2.111696 0.730952 0.238310
v -2.101136 0.725307 0.238310
v -2.089678 0.721831 0.238310
v -2.077761 0.720658 0.238310
v -2.077761 0.842822 0.238310
v -2.089678 0.841648 -0.239896
v -2.101136 0.838172 -0.239896
v 0.080967 0.720658 0.238310
v 0.092883 0.721831 0.238310
v 0.104342 0.725307 0.238310
v 0.114902 0.730952 0.238310
v 0.124158 0.738548 0.238310
v 0.131755 0.747804 0.238310
v 0.137399 0.758365 0.238310
v 0.140875 0.769823 0.238310
v 0.142049 0.781740 0.238310
v 0.140875 0.793656 0.238310
v 0.137399 0.805115 0.238310
v 0.131755 0.815675 0.238310
v 0.124158 0.824931 0.238310
v 0.114902 0.832528 0.238310
v 0.104342 0.838172 0.238310
v 0.092883 0.841648 0.238310
v 0.080967 0.842822 -0.239896
v -2.111696 0.832528 -0.239896
v -2.120953 0.824931 -0.239896
v -2.128549 0.815675 -0.239896
v -2.134193 0.805115 -0.239896
v -2.137669 0.793656 -0.239896
v -2.138843 0.781740 -0.239896
v -2.137669 0.769823 -0.239896
v -2.134193 0.758365 -0.239896
v -2.128549 0.747804 -0.239896
v -2.120953 0.738548 -0.239896
v -2.111696 0.730952 -0.239896
v -2.101136 0.725307 -0.239896
v -2.089678 0.721831 -0.239896
v -2.077761 0.720658 -0.239896
v -2.077761 0.842822 -0.239896
v 0.080967 0.720658 -0.239896
v 0.092883 0.721831 -0.239896
v 0.104342 0.725307 -0.239896
v 0.114902 0.730952 -0.239896
v 0.124158 0.738548 -0.239896
v 0.131755 0.747804 -0.239896
v 0.137399 0.758365 -0.239896
v 0.140875 0.769823 -0.239896
v 0.142049 0.781740 -0.239896
v 0.140875 0.793656 -0.239896
v 0.137399 0.805115 -0.239896
v 0.131755 0.815675 -0.239896
v 0.124158 0.824931 -0.239896
v 0.114902 0.832528 -0.239896
v 0.104342 0.838172 -0.239896
v 0.092883 0.841648 -0.239896
v -2.120953 0.824931 0.238310
v -2.111696 0.832528 0.238310
v -2.101136 0.838172 0.238310
v -2.089678 0.841648 0.238310
v 0.080967 0.728109 0.238310
v -2.077761 0.728109 0.238310
v 0.080967 0.728109 -0.239896
v -2.077761 0.728109 -0.239896
v -0.618052 0.850000 -0.250000
v -0.618052 0.850000 0.250000
v -0.618052 0.850000 -0.325000
v -0.618052 0.850000 0.325000
v -0.150000 0.850000 0.287500
v -2.150000 0.850000 0.287500
v -2.150000 0.850000 -0.287500
v -0.150000 0.850000 -0.287500
v -0.618052 0.850000 -0.287500
v -0.618052 0.850000 0.287500
v -0.618052 0.850000 -0.250000
v -0.618052 0.850000 0.250000
v -0.618052 0.850000 -0.325000
v -0.618052 0.850000 0.325000
v -0.618052 0.850000 -0.287500
v -0.618052 0.850000 0.287500
v -0.637792 0.858673 -0.250000
v -0.637792 0.858673 0.250000
v -0.637792 0.858673 -0.325000
v -0.637792 0.858673 0.325000
v -0.637792 0.858673 -0.287500
v -0.637792 0.858673 0.287500
v -0.660780 0.865697 -0.250000
v -0.660780 0.865697 0.250000
v -0.660780 0.865697 -0.325000
v -0.660780 0.865697 0.325000
v -0.660780 0.865697 -0.287500
v -0.660780 0.865697 0.287500
v -0.687599 0.872083 -0.250000
v -0.687599 0.872083 0.250000
v -0.687599 0.872083 -0.325000
v -0.687599 0.872083 0.325000
v -0.687599 0.872083 -0.287500
v -0.687599 0.872083 0.287500
v -0.727190 0.877191 -0.250000
v -0.727190 0.877191 0.250000
v -0.727190 0.877191 -0.325000
v -0.727190 0.877191 0.325000
v -0.727190 0.877191 -0.287500
v -0.727190 0.877191 0.287500
v -0.793600 0.881661 -0.250000
v -0.793600 0.881661 0.250000
v -0.793600 0.881661 -0.325000
v -0.793600 0.881661 0.325000
v -0.793600 0.881661 -0.287500
v -0.793600 0.881661 0.287500
v -0.877251 0.883896 -0.250000
v -0.877251 0.883896 0.250000
v -0.877251 0.883896 -0.325000
v -0.877251 0.883896 0.325000
v -0.877251 0.883896 -0.287500
v -0.877251 0.883896 0.287500
v -2.122416 0.883896 -0.250000
v -2.122416 0.883896 0.250000
v -2.122416 0.883896 -0.325000
v -2.122416 0.883896 0.325000
v -2.122416 0.883896 -0.287500
v -2.122416 0.883896 0.287500
v -2.150000 0.850000 0.250000
v -2.150000 0.850000 -0.250000
v -2.150000 0.850000 0.325000
v -2.150000 0.850000 -0.325000
v -2.150000 0.850000 0.287500
v -2.150000 0.850000 -0.287500
v -2.133903 0.880710 0.250000
v -2.133903 0.880710 -0.250000
v -2.133903 0.880710 0.325000
v -2.133903 0.880710 -0.325000
v -2.133903 0.880710 0.287500
v -2.133903 0.880710 -0.287500
v -2.141491 0.873631 -0.250000
v -2.141491 0.873631 -0.287500
v -2.141491 0.873631 0.287500
v -2.141491 0.873631 0.250000
v -2.141491 0.873631 0.325000
v -2.141491 0.873631 -0.325000
v -2.147439 0.862608 -0.250000
v -2.147439 0.862608 0.287500
v -2.147439 0.862608 0.325000
v -2.147439 0.862608 -0.287500
v -2.147439 0.862608 0.250000
v -2.147439 0.862608 -0.325000
v -0.881425 0.850000 -0.325000
v -0.881425 0.850000 0.325000
v -2.119116 0.850000 -0.325000
v -2.119116 0.850000 0.325000
v -0.879158 0.850000 -0.250000
v -0.879158 0.850000 0.250000
v -2.120662 0.850000 -0.250000
v -2.120662 0.850000 0.250000
vt 0.669287 0.625757
vt 0.735964 0.548866
vt 0.735964 0.701502
vt 0.662494 0.634570
vt 0.586606 0.705554
vt 0.653172 0.628586
vt 0.586402 0.552723
vt 0.659982 0.619737
vt 0.583647 0.552619
vt 0.579098 0.710523
vt 0.399632 0.524372
vt 0.400016 0.709646
vt 0.387146 0.709782
vt 0.383487 0.521936
vt 0.199434 0.700713
vt 0.234050 0.553183
vt 0.181410 0.517836
vt 0.132964 0.683826
vt 0.285669 0.509601
vt 0.229422 0.461589
vt 0.115014 0.498458
vt 0.048618 0.479080
vt 0.000172 0.645070
vt 0.066568 0.664448
vt 0.123443 0.999828
vt 0.165660 0.833653
vt 0.099190 0.816766
vt 0.056973 0.982941
vt 0.333681 0.453354
vt 0.277434 0.405342
vt 0.182547 0.767183
vt 0.116077 0.750296
vt 0.385309 0.003989
vt 0.375507 0.023582
vt 0.367734 0.021765
vt 0.377080 0.000172
vt 0.216300 0.704278
vt 0.244903 0.560055
vt 0.705403 0.000172
vt 0.715712 0.018919
vt 0.626362 0.018919
vt 0.636671 0.000172
vt 0.400360 0.786759
vt 0.400360 0.718027
vt 0.858568 0.718027
vt 0.858568 0.786759
vt 0.400360 0.717684
vt 0.400360 0.630206
vt 0.410670 0.630206
vt 0.410670 0.698937
vt 0.583799 0.454149
vt 0.585488 0.544972
vt 0.600779 0.544685
vt 0.599119 0.453948
vt 0.479401 0.698937
vt 0.489711 0.717684
vt 0.378860 0.213530
vt 0.380076 0.090745
vt 0.385344 0.090755
vt 0.385510 0.215256
vt 0.715712 0.025796
vt 0.626362 0.025796
vt 0.374342 0.090697
vt 0.610664 0.524027
vt 0.610628 0.453903
vt 0.605120 0.453928
vt 0.375831 0.709963
vt 0.372273 0.522985
vt 0.377934 0.523216
vt 0.215449 0.722141
vt 0.298811 0.726114
vt 0.299413 0.709069
vt 0.400016 0.090779
vt 0.386232 0.515253
vt 0.387043 0.271431
vt 0.618818 0.525782
vt 0.609450 0.548522
vt 0.368544 0.522717
vt 0.355005 0.522635
vt 0.359624 0.090494
vt 0.372669 0.214984
vt 0.370482 0.270795
vt 0.368581 0.516538
vt 0.579098 0.001320
vt 0.597509 0.323661
vt 0.595228 0.264802
vt 0.593330 0.008057
vt 0.593291 0.001239
vt 0.387403 0.726140
vt 0.375952 0.726320
vt 0.479401 0.630206
vt 0.489711 0.630206
vt 0.399924 0.003974
vt 0.626018 0.000957
vt 0.611826 0.001023
vt 0.611856 0.007499
vt 0.612603 0.265279
vt 0.610952 0.323748
vt 0.626018 0.453892
vt 0.489711 0.171997
vt 0.479402 0.171997
vt 0.400360 0.171991
vt 0.410670 0.171991
vt 0.479402 0.000172
vt 0.489711 0.000270
vt 0.297257 0.524771
vt 0.296875 0.508696
vt 0.371891 0.506911
vt 0.626011 0.525783
vt 0.360845 0.021643
vt 0.558786 0.540053
vt 0.558786 0.608784
vt 0.490055 0.608784
vt 0.490055 0.540053
vt 0.566515 0.019004
vt 0.566717 0.518579
vt 0.501916 0.518916
vt 0.504222 0.019012
vt 0.564629 0.521475
vt 0.503995 0.521736
vt 0.562846 0.524008
vt 0.505792 0.524215
vt 0.561357 0.526185
vt 0.507301 0.526346
vt 0.560168 0.528040
vt 0.508509 0.528163
vt 0.559288 0.529614
vt 0.509406 0.529706
vt 0.558708 0.530945
vt 0.510000 0.531010
vt 0.558391 0.532075
vt 0.510328 0.532118
vt 0.558290 0.533075
vt 0.510444 0.533107
vt 0.558424 0.534064
vt 0.510326 0.534103
vt 0.558958 0.535158
vt 0.509808 0.535217
vt 0.560150 0.536396
vt 0.508638 0.536486
vt 0.562277 0.537734
vt 0.506542 0.537876
vt 0.565545 0.539039
vt 0.503271 0.539275
vt 0.490055 0.539709
vt 0.491878 0.001963
vt 0.578755 0.002064
vt 0.578755 0.539171
vt 0.564725 0.016219
vt 0.505982 0.016270
vt 0.563194 0.013761
vt 0.507506 0.013839
vt 0.561916 0.011628
vt 0.508784 0.011729
vt 0.560902 0.009795
vt 0.509803 0.009916
vt 0.560161 0.008231
vt 0.510547 0.008369
vt 0.559690 0.006902
vt 0.511021 0.007058
vt 0.559460 0.005771
vt 0.511254 0.005944
vt 0.559436 0.004769
vt 0.511283 0.004950
vt 0.559665 0.003785
vt 0.511060 0.003958
vt 0.560346 0.002728
vt 0.510383 0.002884
vt 0.561756 0.001624
vt 0.508977 0.001754
vt 0.564073 0.000629
vt 0.506636 0.000707
vt 0.503327 0.000206
vt 0.567375 0.000172
vt 0.604479 0.325360
vt 0.378867 0.213653
vt 0.372813 0.215074
vt 0.597677 0.323558
vt 0.604471 0.325232
vt 0.385348 0.215352
vt 0.610800 0.323655
vt 0.598489 0.318884
vt 0.604304 0.319326
vt 0.384522 0.219794
vt 0.378969 0.219300
vt 0.609932 0.318959
vt 0.373593 0.219584
vt 0.604215 0.313547
vt 0.609388 0.313327
vt 0.378995 0.224821
vt 0.374053 0.224974
vt 0.598980 0.313310
vt 0.383993 0.225105
vt 0.599301 0.307374
vt 0.604168 0.307468
vt 0.383622 0.230768
vt 0.378975 0.230625
vt 0.609005 0.307381
vt 0.374357 0.230657
vt 0.604116 0.298943
vt 0.608828 0.298923
vt 0.378933 0.238764
vt 0.374437 0.238733
vt 0.599389 0.298934
vt 0.383445 0.238824
vt 0.599193 0.284775
vt 0.604040 0.284726
vt 0.383478 0.252338
vt 0.378854 0.252333
vt 0.608876 0.284746
vt 0.374242 0.252263
vt 0.603896 0.265839
vt 0.608821 0.265782
vt 0.378790 0.270350
vt 0.374094 0.270353
vt 0.599019 0.265841
vt 0.383439 0.270400
vt 0.597506 0.008186
vt 0.602549 0.008201
vt 0.382265 0.515203
vt 0.377431 0.515468
vt 0.607624 0.008139
vt 0.372597 0.515804
vt 0.602401 0.000172
vt 0.608289 0.000588
vt 0.608283 0.000691
vt 0.602405 0.000275
vt 0.596605 0.000946
vt 0.596619 0.001047
vt 0.383402 0.521846
vt 0.377928 0.523126
vt 0.372278 0.522887
vt 0.373034 0.519866
vt 0.377703 0.519808
vt 0.377576 0.517990
vt 0.372979 0.518197
vt 0.602488 0.003666
vt 0.607364 0.003880
vt 0.607361 0.005595
vt 0.602511 0.005562
vt 0.597666 0.004026
vt 0.597747 0.005723
vt 0.382296 0.519114
vt 0.382169 0.517558
vt 0.377830 0.521599
vt 0.382698 0.520584
vt 0.597292 0.002423
vt 0.602453 0.001808
vt 0.607654 0.002203
vt 0.372809 0.521473
vn -1.0000 0.0000 0.0000
vn 0.0000 0.0000 -1.0000
vn 1.0000 0.0000 0.0000
vn 0.0000 0.0000 1.0000
vn 0.0000 -1.0000 0.0000
vn 0.0000 1.0000 0.0000
vn 0.6757 0.0000 0.7372
vn -0.6757 0.0000 0.7372
vn -1.0000 0.0000 -0.0057
vn 0.0980 0.9952 0.0000
vn 0.2903 0.9569 0.0000
vn 0.4714 0.8819 0.0000
vn 0.6344 0.7730 0.0000
vn 0.7730 0.6344 0.0000
vn 0.8819 0.4714 0.0000
vn 0.9569 0.2903 0.0000
vn 0.9952 0.0980 0.0000
vn 0.9952 -0.0980 0.0000
vn 0.9569 -0.2903 0.0000
vn 0.8819 -0.4714 0.0000
vn 0.7730 -0.6344 0.0000
vn 0.6344 -0.7730 0.0000
vn -0.0980 0.9952 0.0000
vn -0.2903 0.9569 0.0000
vn -0.4714 0.8819 0.0000
vn -0.6344 0.7730 0.0000
vn -0.7730 0.6344 0.0000
vn -0.8819 0.4714 0.0000
vn -0.9569 0.2903 0.0000
vn -0.9952 0.0980 0.0000
vn -0.9952 -0.0980 0.0000
vn -0.9569 -0.2903 0.0000
vn -0.8819 -0.4714 0.0000
vn -0.7730 -0.6344 0.0000
vn -0.4023 -0.9155 0.0000
vn 0.4023 0.9155 0.0000
vn -0.2922 -0.9564 0.0000
vn 0.2922 0.9564 0.0000
vn -0.2316 -0.9728 0.0000
vn 0.2316 0.9728 0.0000
vn -0.1280 -0.9918 0.0000
vn 0.1280 0.9918 0.0000
vn -0.0672 -0.9977 0.0000
vn 0.0672 0.9977 0.0000
vn -0.0267 -0.9996 0.0000
vn 0.0267 0.9996 0.0000
vn 0.6821 -0.7312 0.0000
vn -0.2673 0.9636 0.0000
vn 0.2673 -0.9636 0.0000
vn 0.8801 -0.4749 0.0000
vn 0.9800 -0.1991 0.0000
usemtl Material.001
s off
f 1/1/1 2/2/1 4/3/1 3/4/1
f 3/4/2 4/3/2 8/5/2 7/6/2
f 7/6/3 8/5/3 6/7/3 5/8/3
f 5/8/4 6/7/4 2/2/4 1/1/4
f 3/4/5 7/6/5 5/8/5 1/1/5
f 8/5/4 6/7/4 9/9/4 10/10/4
f 26/11/2 30/12/2 47/13/2 43/14/2
f 16/15/2 15/16/2 22/17/2 21/18/2
f 15/16/1 11/19/1 17/20/1 22/17/1
f 17/21/6 18/22/6 20/23/6 19/24/6
f 17/21/6 19/24/6 21/18/6 22/17/6
f 12/25/4 14/26/4 20/27/4 18/28/4
f 11/19/1 12/29/1 18/30/1 17/20/1
f 13/31/3 16/15/3 21/18/3 19/32/3
f 14/26/3 13/31/3 19/32/3 20/27/3
f 45/33/7 34/34/7 49/35/7 51/36/7
f 15/16/2 16/15/2 39/37/2 38/38/2
f 48/39/6 50/40/6 51/41/6 49/42/6
f 11/43/5 12/44/5 4/45/5 2/46/5
f 27/47/5 23/48/5 2/49/5 9/50/5
f 23/51/4 27/52/4 44/53/4 40/54/4
f 10/55/5 28/56/5 27/47/5 9/50/5
f 132/57/6 131/58/6 41/59/6 126/60/6
f 27/61/3 28/62/3 51/41/3 50/40/3
f 32/63/6 34/34/6 45/33/6 41/59/6 131/58/6
f 40/54/6 44/53/6 33/64/6 31/65/6 128/66/6
f 47/13/6 46/67/6 36/68/6 130/69/6 43/14/6
f 16/70/3 13/71/3 37/72/3 39/37/3
f 24/73/2 26/11/2 43/14/2 208/74/2 206/75/2 126/60/2 41/59/2
f 44/53/8 33/64/8 48/76/8 50/77/8
f 36/78/4 12/79/4 4/80/4 32/63/4 124/81/4 210/82/4 212/83/4
f 25/84/4 23/51/4 40/54/4 127/85/4 207/86/4 209/87/4 42/88/4
f 30/89/9 29/90/9 46/67/9 47/13/9
f 10/55/5 4/91/5 24/92/5 28/56/5
f 28/93/2 24/73/2 41/59/2 45/33/2
f 11/94/2 35/95/2 213/96/2 211/97/2 125/98/2 31/65/2 2/99/2
f 26/100/5 24/92/5 4/91/5 12/101/5
f 25/102/5 11/103/5 2/49/5 23/48/5
f 26/100/5 12/101/5 29/104/5 30/105/5
f 35/106/3 11/107/3 12/108/3 36/68/3
f 48/76/2 31/65/2 33/64/2
f 48/76/2 2/99/2 31/65/2
f 2/99/2 48/76/2 9/109/2
f 4/80/4 10/110/4 49/35/4
f 4/80/4 49/35/4 32/63/4
f 49/35/4 34/34/4 32/63/4
f 2/111/6 9/112/6 10/113/6 4/114/6
f 13/71/3 29/90/3 46/67/3 37/72/3
f 36/68/6 46/67/6 37/72/6 35/106/6
f 39/37/5 37/72/5 35/106/5 38/38/5
f 15/16/1 38/38/1 35/106/1 11/19/1
f 65/115/6 52/116/6 84/117/6 99/118/6
f 83/119/10 115/120/10 84/117/10 52/116/10
f 82/121/11 114/122/11 115/120/11 83/119/11
f 81/123/12 113/124/12 114/122/12 82/121/12
f 80/125/13 112/126/13 113/124/13 81/123/13
f 79/127/14 111/128/14 112/126/14 80/125/14
f 78/129/15 110/130/15 111/128/15 79/127/15
f 77/131/16 109/132/16 110/130/16 78/129/16
f 76/133/17 108/134/17 109/132/17 77/131/17
f 75/135/18 107/136/18 108/134/18 76/133/18
f 74/137/19 106/138/19 107/136/19 75/135/19
f 73/139/20 105/140/20 106/138/20 74/137/20
f 72/141/21 104/142/21 105/140/21 73/139/21
f 71/143/22 103/144/22 104/142/22 72/141/22
f 99/118/2 84/117/2 122/145/2 123/146/2
f 52/116/4 65/115/4 121/147/4 120/148/4
f 115/120/2 122/145/2 84/117/2
f 114/122/2 122/145/2 115/120/2
f 113/124/2 122/145/2 114/122/2
f 112/126/2 122/145/2 113/124/2
f 111/128/2 122/145/2 112/126/2
f 110/130/2 122/145/2 111/128/2
f 109/132/2 122/145/2 110/130/2
f 108/134/2 122/145/2 109/132/2
f 107/136/2 122/145/2 108/134/2
f 106/138/2 122/145/2 107/136/2
f 105/140/2 122/145/2 106/138/2
f 104/142/2 122/145/2 105/140/2
f 103/144/2 122/145/2 104/142/2
f 52/116/4 120/148/4 83/119/4
f 82/121/4 83/119/4 120/148/4
f 81/123/4 82/121/4 120/148/4
f 80/125/4 81/123/4 120/148/4
f 79/127/4 80/125/4 120/148/4
f 78/129/4 79/127/4 120/148/4
f 77/131/4 78/129/4 120/148/4
f 76/133/4 77/131/4 120/148/4
f 75/135/4 76/133/4 120/148/4
f 74/137/4 75/135/4 120/148/4
f 73/139/4 74/137/4 120/148/4
f 72/141/4 73/139/4 120/148/4
f 71/143/4 72/141/4 120/148/4
f 119/149/23 65/115/23 99/118/23 66/150/23
f 118/151/24 119/149/24 66/150/24 67/152/24
f 117/153/25 118/151/25 67/152/25 85/154/25
f 116/155/26 117/153/26 85/154/26 86/156/26
f 53/157/27 116/155/27 86/156/27 87/158/27
f 54/159/28 53/157/28 87/158/28 88/160/28
f 55/161/29 54/159/29 88/160/29 89/162/29
f 56/163/30 55/161/30 89/162/30 90/164/30
f 57/165/31 56/163/31 90/164/31 91/166/31
f 58/167/32 57/165/32 91/166/32 92/168/32
f 59/169/33 58/167/33 92/168/33 93/170/33
f 60/171/34 59/169/34 93/170/34 94/172/34
f 99/118/2 123/146/2 66/150/2
f 67/152/2 66/150/2 123/146/2
f 85/154/2 67/152/2 123/146/2
f 86/156/2 85/154/2 123/146/2
f 87/158/2 86/156/2 123/146/2
f 88/160/2 87/158/2 123/146/2
f 89/162/2 88/160/2 123/146/2
f 90/164/2 89/162/2 123/146/2
f 91/166/2 90/164/2 123/146/2
f 92/168/2 91/166/2 123/146/2
f 93/170/2 92/168/2 123/146/2
f 94/172/2 93/170/2 123/146/2
f 95/173/2 94/172/2 123/146/2
f 119/149/4 121/147/4 65/115/4
f 118/151/4 121/147/4 119/149/4
f 117/153/4 121/147/4 118/151/4
f 116/155/4 121/147/4 117/153/4
f 53/157/4 121/147/4 116/155/4
f 54/159/4 121/147/4 53/157/4
f 55/161/4 121/147/4 54/159/4
f 56/163/4 121/147/4 55/161/4
f 57/165/4 121/147/4 56/163/4
f 58/167/4 121/147/4 57/165/4
f 59/169/4 121/147/4 58/167/4
f 60/171/4 121/147/4 59/169/4
f 61/174/4 121/147/4 60/171/4
f 124/81/6 32/63/6 131/58/6 132/57/6
f 128/66/6 133/175/6 127/85/6 40/54/6
f 31/65/6 125/98/6 133/175/6 128/66/6
f 124/81/4 132/57/4 138/176/4 134/177/4
f 133/175/4 127/85/4 137/178/4 139/179/4
f 132/57/4 126/60/4 136/180/4 138/176/4
f 125/98/4 133/175/4 139/179/4 135/181/4
f 139/179/35 137/178/35 143/182/35 145/183/35
f 138/176/36 136/180/36 142/184/36 144/185/36
f 135/181/35 139/179/35 145/183/35 141/186/35
f 134/177/36 138/176/36 144/185/36 140/187/36
f 141/186/37 145/183/37 151/188/37 147/189/37
f 140/187/38 144/185/38 150/190/38 146/191/38
f 145/183/37 143/182/37 149/192/37 151/188/37
f 144/185/38 142/184/38 148/193/38 150/190/38
f 151/188/39 149/192/39 155/194/39 157/195/39
f 150/190/40 148/193/40 154/196/40 156/197/40
f 147/189/39 151/188/39 157/195/39 153/198/39
f 146/191/40 150/190/40 156/197/40 152/199/40
f 153/198/41 157/195/41 163/200/41 159/201/41
f 152/199/42 156/197/42 162/202/42 158/203/42
f 157/195/41 155/194/41 161/204/41 163/200/41
f 156/197/42 154/196/42 160/205/42 162/202/42
f 163/200/43 161/204/43 167/206/43 169/207/43
f 162/202/44 160/205/44 166/208/44 168/209/44
f 159/201/43 163/200/43 169/207/43 165/210/43
f 158/203/44 162/202/44 168/209/44 164/211/44
f 165/210/45 169/207/45 175/212/45 171/213/45
f 164/211/46 168/209/46 174/214/46 170/215/46
f 169/207/45 167/206/45 173/216/45 175/212/45
f 168/209/46 166/208/46 172/217/46 174/214/46
f 175/212/5 173/216/5 179/218/5 181/219/5
f 174/214/6 172/217/6 178/220/6 180/221/6
f 171/213/5 175/212/5 181/219/5 177/222/5
f 170/215/6 174/214/6 180/221/6 176/223/6
f 129/224/4 35/225/4 182/226/4 186/227/4
f 42/228/4 129/224/4 186/227/4 184/229/4
f 130/69/4 43/14/4 185/230/4 187/231/4
f 36/68/4 130/69/4 187/231/4 183/232/4
f 194/233/47 195/234/47 193/235/47 189/236/47
f 196/237/47 197/238/47 188/239/47 192/240/47
f 198/241/47 196/237/47 192/240/47 190/242/47
f 195/234/47 199/243/47 191/244/47 193/235/47
f 176/223/48 180/221/48 193/235/48 189/236/48
f 180/221/48 178/220/48 191/244/48 193/235/48
f 179/218/49 190/242/49 192/240/49 181/219/49
f 181/219/49 192/240/49 188/239/49 177/222/49
f 203/245/50 205/246/50 199/243/50 195/234/50
f 202/247/50 201/248/50 196/237/50 198/241/50
f 201/248/50 204/249/50 197/238/50 196/237/50
f 200/250/50 203/245/50 195/234/50 194/233/50
f 183/232/51 187/231/51 203/245/51 200/250/51
f 186/227/51 182/226/51 204/249/51 201/248/51
f 184/229/51 186/227/51 201/248/51 202/247/51
f 187/231/51 185/230/51 205/246/51 203/245/51
f 208/74/2 191/244/2 178/220/2
f 191/244/4 199/243/4 208/74/4
f 199/243/4 205/246/4 208/74/4
f 205/246/4 185/230/4 208/74/4
f 178/220/2 172/217/2 206/75/2 208/74/2
f 172/217/2 166/208/2 206/75/2
f 166/208/2 160/205/2 206/75/2
f 160/205/2 154/196/2 206/75/2
f 154/196/2 148/193/2 206/75/2
f 148/193/2 142/184/2 206/75/2
f 142/184/2 136/180/2 206/75/2
f 167/206/2 207/86/2 173/216/2
f 167/206/2 161/204/2 207/86/2
f 161/204/2 155/194/2 207/86/2
f 155/194/2 149/192/2 207/86/2
f 149/192/2 143/182/2 207/86/2
f 143/182/2 137/178/2 207/86/2
f 173/216/2 207/86/2 209/87/2 179/218/2
f 190/242/2 179/218/2 209/87/2
f 198/241/2 190/242/2 209/87/2
f 202/247/2 198/241/2 209/87/2
f 184/229/2 202/247/2 209/87/2
f 213/96/4 177/222/4 188/239/4
f 188/239/4 197/238/4 213/96/4
f 197/238/4 204/249/4 213/96/4
f 204/249/4 182/226/4 213/96/4
f 171/213/4 177/222/4 213/96/4 211/97/4
f 165/210/4 171/213/4 211/97/4
f 159/201/4 165/210/4 211/97/4
f 153/198/4 159/201/4 211/97/4
f 147/189/4 153/198/4 211/97/4
f 141/186/4 147/189/4 211/97/4
f 135/181/4 141/186/4 211/97/4
f 210/82/4 164/211/4 170/215/4
f 164/211/4 210/82/4 158/203/4
f 152/199/4 158/203/4 210/82/4
f 146/191/4 152/199/4 210/82/4
f 140/187/4 146/191/4 210/82/4
f 134/177/4 140/187/4 210/82/4
f 176/223/4 212/83/4 210/82/4 170/215/4
f 189/236/4 212/83/4 176/223/4
f 194/233/2 189/236/2 212/83/2
f 200/250/2 194/233/2 212/83/2
f 183/232/2 200/250/2 212/83/2
l 34 10
l 33 9
l 14 29
l 61 62
l 62 63
l 63 64
l 69 68
l 70 69
l 71 70
l 95 96
l 96 97
l 97 98
l 101 100
l 102 101
l 103 102
l 132 130
l 129 133
