# Blender v2.83.1 OBJ File: 'milk.blend'
# www.blender.org
mtllib milk.mtl
o Cube
v 0.035000 0.138422 -0.031149
v 0.035000 0.000524 -0.035000
v 0.035000 0.138422 0.031149
v 0.035000 0.000524 0.035000
v -0.035000 0.138422 -0.031149
v -0.035000 0.000524 -0.035000
v -0.035000 0.138422 0.031149
v -0.035000 0.000524 0.035000
v 0.035000 0.170246 -0.000619
v 0.035000 0.170246 0.000619
v -0.035000 0.170246 -0.000619
v -0.035000 0.170246 0.000619
v 0.029790 0.182267 -0.001193
v 0.029790 0.182267 0.001193
v -0.029790 0.182267 -0.001193
v -0.029790 0.182267 0.001193
v 0.035000 0.136779 -0.035000
v 0.035000 0.136779 0.035000
v -0.035000 0.136779 0.035000
v -0.035000 0.136779 -0.035000
v 0.035000 0.171889 -0.001319
v 0.035000 0.171889 0.001319
v -0.035000 0.171889 0.001319
v -0.035000 0.171889 -0.001319
v 0.035000 0.171889 0.000000
v -0.035000 0.171889 0.000000
v -0.004629 0.170422 0.001319
v 0.004629 0.170422 -0.001319
v 0.004629 0.170422 0.001319
v -0.004629 0.170422 -0.001319
v 0.034645 0.177147 0.001306
v -0.034645 0.177147 0.001306
v -0.034645 0.177147 -0.001306
v 0.034645 0.177147 -0.001306
v 0.033729 0.179146 0.001271
v -0.033729 0.179146 -0.001271
v -0.033729 0.179146 0.001271
v 0.033729 0.179146 -0.001271
v 0.000000 0.180719 -0.001233
v 0.032703 0.180719 0.001233
v -0.032703 0.180719 -0.001233
v -0.032703 0.180719 0.001233
v 0.032703 0.180719 -0.001233
v -0.000000 0.165049 0.010562
v -0.004392 0.164420 0.011168
v -0.008116 0.162627 0.012893
v -0.010604 0.159944 0.015475
v -0.011477 0.156779 0.018521
v -0.010604 0.153615 0.021567
v -0.008116 0.150932 0.024149
v -0.004392 0.149139 0.025874
v -0.000000 0.148510 0.026480
v 0.004392 0.149139 0.025874
v 0.008116 0.150932 0.024149
v 0.010604 0.153615 0.021567
v 0.011477 0.156779 0.018521
v 0.010604 0.159944 0.015475
v 0.008116 0.162627 0.012893
v 0.004392 0.164420 0.011168
v -0.000000 0.168208 0.013844
v -0.004392 0.167578 0.014450
v -0.008116 0.165785 0.016175
v -0.010604 0.163103 0.018757
v -0.011477 0.159938 0.021803
v -0.010604 0.156773 0.024849
v -0.008116 0.154090 0.027431
v -0.004392 0.152298 0.029156
v -0.000000 0.151668 0.029762
v 0.004392 0.152298 0.029156
v 0.008116 0.154090 0.027431
v 0.010604 0.156773 0.024849
v 0.011477 0.159938 0.021803
v 0.010604 0.163103 0.018757
v 0.008116 0.165785 0.016175
v 0.004392 0.167578 0.014450
v -0.000000 0.168598 0.014773
v -0.004253 0.167988 0.015360
v -0.007859 0.166252 0.017031
v -0.010268 0.163654 0.019531
v -0.011114 0.160590 0.022480
v -0.010268 0.157525 0.025430
v -0.007859 0.154927 0.027930
v -0.004253 0.153191 0.029601
v -0.000000 0.152582 0.030187
v 0.004253 0.153191 0.029601
v 0.007859 0.154927 0.027930
v 0.010268 0.157525 0.025430
v 0.011114 0.160590 0.022480
v 0.010268 0.163654 0.019531
v 0.007859 0.166252 0.017031
v 0.004253 0.167988 0.015360
v -0.000000 0.167981 0.016191
v -0.003707 0.167450 0.016702
v -0.006850 0.165937 0.018158
v -0.008950 0.163673 0.020338
v -0.009687 0.161002 0.022908
v -0.008950 0.158331 0.025479
v -0.006850 0.156066 0.027658
v -0.003707 0.154553 0.029114
v -0.000000 0.154022 0.029625
v 0.003707 0.154553 0.029114
v 0.006850 0.156066 0.027658
v 0.008950 0.158331 0.025479
v 0.009687 0.161002 0.022908
v 0.008950 0.163673 0.020338
v 0.006850 0.165937 0.018158
v 0.003707 0.167450 0.016702
v -0.000000 0.161002 0.022908
v 0.007487 0.162174 0.013329
v 0.009782 0.159699 0.015711
v 0.010588 0.156779 0.018521
v 0.009782 0.153860 0.021331
v 0.007487 0.151385 0.023713
v 0.004052 0.149731 0.025304
v -0.000000 0.149151 0.025863
v -0.004052 0.149731 0.025304
v -0.007487 0.151385 0.023713
v -0.009782 0.153860 0.021331
v -0.010588 0.156779 0.018521
v -0.009782 0.159699 0.015711
v -0.007487 0.162174 0.013329
v -0.004052 0.163828 0.011738
v -0.000000 0.164408 0.011179
v 0.004052 0.163828 0.011738
v 0.007487 0.163339 0.014540
v 0.009782 0.160864 0.016922
v 0.010588 0.157944 0.019732
v 0.009782 0.155025 0.022541
v 0.007487 0.152550 0.024923
v 0.004052 0.150896 0.026515
v -0.000000 0.150316 0.027074
v -0.004052 0.150896 0.026515
v -0.007487 0.152550 0.024923
v -0.009782 0.155025 0.022541
v -0.010588 0.157944 0.019732
v -0.009782 0.160864 0.016922
v -0.007487 0.163339 0.014540
v -0.004052 0.164993 0.012948
v -0.000000 0.165573 0.012390
v 0.004052 0.164993 0.012948
v 0.006599 0.162699 0.015155
v 0.008622 0.160518 0.017255
v 0.009333 0.157944 0.019732
v 0.008622 0.155371 0.022208
v 0.006599 0.153190 0.024308
v 0.003572 0.151732 0.025711
v -0.000000 0.151220 0.026203
v -0.003572 0.151732 0.025711
v -0.006599 0.153190 0.024308
v -0.008622 0.155371 0.022208
v -0.009333 0.157944 0.019732
v -0.008622 0.160518 0.017255
v -0.006599 0.162699 0.015155
v -0.003572 0.164157 0.013752
v -0.000000 0.164669 0.013260
v 0.003572 0.164157 0.013752
v 0.006599 0.159841 0.012185
v 0.008622 0.157659 0.014284
v 0.009333 0.155086 0.016761
v 0.008622 0.152512 0.019238
v 0.006599 0.150331 0.021337
v 0.003572 0.148873 0.022740
v -0.000000 0.148361 0.023233
v -0.003572 0.148873 0.022740
v -0.006599 0.150331 0.021337
v -0.008622 0.152512 0.019238
v -0.009333 0.155086 0.016761
v -0.008622 0.157659 0.014284
v -0.006599 0.159841 0.012185
v -0.003572 0.161298 0.010782
v -0.000000 0.161810 0.010289
v 0.003572 0.161298 0.010782
v 0.000000 0.180719 0.001233
vt 0.696790 0.500258
vt 0.696790 0.749743
vt 0.523389 0.749743
vt 0.523389 0.500258
vt 0.485883 0.499228
vt 0.000257 0.499228
vt 0.000257 0.249743
vt 0.485883 0.249742
vt 0.000257 0.000257
vt 0.485883 0.000257
vt 0.735882 0.250258
vt 0.735882 0.499743
vt 0.486397 0.499743
vt 0.486397 0.250258
vt 0.485883 0.748713
vt 0.000257 0.748713
vt 0.485883 0.998199
vt 0.000257 0.998199
vt 0.946789 0.710650
vt 0.697304 0.710650
vt 0.697304 0.537250
vt 0.946789 0.537250
vt 0.877500 0.711165
vt 0.877500 0.980945
vt 0.743242 0.837670
vt 0.748095 0.830804
vt 0.715871 0.500258
vt 0.822046 0.505775
vt 0.705491 0.505775
vt 0.945524 0.518510
vt 0.498151 0.870605
vt 0.498151 0.879392
vt 0.486397 0.879251
vt 0.486397 0.870747
vt 0.710494 0.120606
vt 0.710494 0.129393
vt 0.698741 0.129251
vt 0.698741 0.120747
vt 0.650744 0.986016
vt 0.650744 0.763984
vt 0.656598 0.750257
vt 0.656598 0.999743
vt 0.863088 0.236017
vt 0.863088 0.013984
vt 0.868942 0.000257
vt 0.868942 0.249744
vt 0.537318 0.872793
vt 0.537319 0.877205
vt 0.531465 0.879701
vt 0.531465 0.874999
vt 0.531465 0.870296
vt 0.749662 0.122793
vt 0.749663 0.127205
vt 0.743809 0.129701
vt 0.743809 0.124999
vt 0.743809 0.120297
vt 0.718508 0.946912
vt 0.701763 0.750151
vt 0.697304 0.752638
vt 0.953469 0.454568
vt 0.736397 0.457278
vt 0.835891 0.306662
vt 0.847611 0.302137
vt 0.741841 0.255500
vt 0.744577 0.250258
vt 0.953469 0.300889
vt 0.725027 0.129654
vt 0.725027 0.120345
vt 0.512683 0.879653
vt 0.512683 0.870344
vt 0.928222 0.500258
vt 0.938602 0.505775
vt 0.717191 0.129531
vt 0.717191 0.120468
vt 0.504847 0.879530
vt 0.504847 0.870467
vt 0.491914 0.625000
vt 0.486397 0.120748
vt 0.486397 0.129252
vt 0.504650 0.501523
vt 0.925030 0.140866
vt 0.907068 0.133327
vt 0.916086 0.119188
vt 0.927915 0.124379
vt 0.926450 0.043279
vt 0.946149 0.043901
vt 0.942774 0.060230
vt 0.929767 0.059665
vt 0.944389 0.140905
vt 0.940810 0.124703
vt 0.908446 0.050494
vt 0.917521 0.064302
vt 0.962280 0.133613
vt 0.952799 0.120025
vt 0.894455 0.063954
vt 0.908499 0.073461
vt 0.975878 0.119999
vt 0.962016 0.111174
vt 0.886831 0.081835
vt 0.903228 0.084991
vt 0.983294 0.083496
vt 0.983168 0.102393
vt 0.967138 0.099536
vt 0.967473 0.086883
vt 0.886304 0.100978
vt 0.902771 0.097758
vt 0.976685 0.066051
vt 0.963043 0.075058
vt 0.893418 0.119090
vt 0.907269 0.109768
vt 0.963883 0.052197
vt 0.954444 0.065707
vt 0.909725 0.108244
vt 0.917811 0.116808
vt 0.952753 0.068073
vt 0.942112 0.063101
vt 0.928587 0.121513
vt 0.930280 0.062584
vt 0.940295 0.121768
vt 0.919171 0.066785
vt 0.951200 0.117580
vt 0.910878 0.075068
vt 0.959617 0.109538
vt 0.906065 0.085618
vt 0.964311 0.098938
vt 0.964640 0.087395
vt 0.905645 0.097257
vt 0.960606 0.076598
vt 0.960248 0.098045
vt 0.960552 0.088103
vt 0.956185 0.107156
vt 0.910140 0.086540
vt 0.909787 0.096555
vt 0.957077 0.078801
vt 0.913305 0.105981
vt 0.950300 0.071475
vt 0.920266 0.113329
vt 0.941141 0.067229
vt 0.929496 0.117424
vt 0.930965 0.066825
vt 0.939546 0.117647
vt 0.921447 0.070403
vt 0.948929 0.114051
vt 0.914256 0.077429
vt 0.935230 0.092314
vt 0.924190 0.145022
vt 0.904642 0.136878
vt 0.925696 0.039047
vt 0.947240 0.039345
vt 0.945190 0.145038
vt 0.906135 0.046932
vt 0.964607 0.137123
vt 0.890971 0.061564
vt 0.979347 0.122317
vt 0.882737 0.080945
vt 0.987293 0.082765
vt 0.987212 0.103213
vt 0.882492 0.101626
vt 0.979866 0.064090
vt 0.889496 0.121581
vt 0.966387 0.048821
vt 0.883355 0.056247
vt 0.901108 0.039052
vt 0.946943 0.154046
vt 0.922294 0.154168
vt 0.924096 0.029711
vt 0.899246 0.144663
vt 0.949541 0.030156
vt 0.881505 0.126536
vt 0.971999 0.041539
vt 0.873332 0.103063
vt 0.987540 0.059509
vt 0.873745 0.078918
vt 0.996077 0.105058
vt 0.986955 0.127451
vt 0.996077 0.081220
vt 0.969779 0.144915
vt 0.930860 0.154765
vt 0.948770 0.162108
vt 0.945469 0.166887
vt 0.929661 0.160345
vt 0.931449 0.251495
vt 0.912061 0.251493
vt 0.913289 0.245825
vt 0.930381 0.245867
vt 0.893512 0.161156
vt 0.911923 0.154682
vt 0.912823 0.160357
vt 0.896614 0.166038
vt 0.949068 0.243998
vt 0.945921 0.239298
vt 0.879924 0.175305
vt 0.884737 0.178432
vt 0.962171 0.230377
vt 0.957506 0.227302
vt 0.873332 0.193162
vt 0.878839 0.194167
vt 0.968959 0.213001
vt 0.963513 0.211910
vt 0.873787 0.211661
vt 0.879350 0.210686
vt 0.968959 0.194432
vt 0.963358 0.195328
vt 0.880199 0.229748
vt 0.885101 0.226712
vt 0.962644 0.176122
vt 0.957721 0.179158
vt 0.893984 0.243871
vt 0.897339 0.239077
vt 0.894459 0.207437
vt 0.899118 0.217167
vt 0.948392 0.198334
vt 0.943741 0.188483
vt 0.906588 0.225350
vt 0.936310 0.180442
vt 0.916440 0.229917
vt 0.926445 0.175912
vt 0.927114 0.230267
vt 0.915725 0.175460
vt 0.905802 0.179829
vt 0.936920 0.226434
vt 0.898221 0.187091
vt 0.944335 0.219055
vt 0.894204 0.196794
vt 0.948183 0.209204
vt 0.698569 0.518510
vt 0.701832 0.511385
vt 0.942262 0.511385
vt 0.504650 0.748478
vt 0.497524 0.745215
vt 0.491914 0.741556
vt 0.497524 0.504786
vt 0.491914 0.508445
vt 0.486397 0.518825
vt 0.486397 0.731176
vn 0.0000 0.6923 -0.7216
vn 0.0000 0.0000 1.0000
vn -1.0000 0.0000 0.0000
vn 0.0000 -1.0000 0.0000
vn 1.0000 0.0000 0.0000
vn 0.0000 0.0000 -1.0000
vn 0.0000 0.6923 0.7216
vn 0.7253 0.6884 0.0000
vn 0.0000 0.0257 0.9997
vn 0.0019 0.0024 1.0000
vn 0.4692 0.8831 0.0000
vn -0.4692 0.8831 0.0000
vn -0.0206 -0.6921 0.7215
vn -0.0058 -1.0000 0.0000
vn -0.0206 -0.6921 -0.7215
vn -0.7253 0.6884 0.0000
vn 0.0058 -1.0000 0.0000
vn 0.0206 -0.6921 -0.7215
vn 0.0206 -0.6921 0.7215
vn -0.9977 0.0674 0.0000
vn 0.9977 0.0674 0.0000
vn -0.9092 0.4164 0.0000
vn 0.9092 0.4164 0.0000
vn 0.0000 0.0098 -1.0000
vn 0.0000 1.0000 0.0000
vn 0.0000 0.0098 1.0000
vn -0.0019 0.0024 -1.0000
vn -0.8375 0.5464 0.0000
vn 0.8375 0.5464 0.0000
vn -0.9808 0.1406 -0.1353
vn 0.9808 0.1406 -0.1353
vn -0.9808 -0.1406 0.1353
vn 0.8315 0.4003 -0.3852
vn -0.8315 -0.4003 0.3852
vn 0.5556 0.5991 -0.5766
vn -0.5556 -0.5991 0.5766
vn 0.1951 0.7067 -0.6801
vn 0.1951 -0.7067 0.6801
vn -0.1951 -0.7067 0.6801
vn -0.1951 0.7067 -0.6801
vn 0.5556 -0.5991 0.5766
vn -0.5556 0.5991 -0.5766
vn 0.8315 -0.4003 0.3853
vn -0.8315 0.4003 -0.3853
vn 0.9808 -0.1406 0.1353
vn -0.7776 0.1289 -0.6154
vn 0.9173 -0.3770 -0.1286
vn -0.9173 -0.1140 -0.3816
vn 0.9173 -0.1140 -0.3816
vn -0.9173 -0.3770 -0.1286
vn 0.7776 0.1289 -0.6154
vn -0.7776 -0.6199 0.1052
vn 0.5196 0.3148 -0.7943
vn -0.5196 -0.8058 0.2841
vn 0.1825 0.4154 -0.8911
vn 0.1825 -0.9064 0.3810
vn -0.1825 -0.9064 0.3810
vn -0.1825 0.4154 -0.8911
vn 0.5196 -0.8058 0.2841
vn -0.5196 0.3148 -0.7943
vn 0.7776 -0.6199 0.1052
vn 0.0762 -0.9143 -0.3977
vn -0.0762 -0.9143 -0.3977
vn -0.0762 -0.3624 -0.9289
vn 0.2170 -0.8723 -0.4381
vn -0.2170 -0.4044 -0.8885
vn 0.3247 -0.7947 -0.5129
vn -0.3247 -0.4820 -0.8138
vn 0.3830 -0.6933 -0.6105
vn -0.3830 -0.5835 -0.7161
vn 0.3830 -0.5835 -0.7161
vn -0.3830 -0.6933 -0.6105
vn 0.3247 -0.4820 -0.8138
vn -0.3247 -0.7947 -0.5129
vn 0.2170 -0.4044 -0.8885
vn -0.2170 -0.8723 -0.4381
vn 0.0762 -0.3624 -0.9289
vn 0.0000 -0.6934 -0.7205
vn 0.0000 0.6934 0.7205
vn 0.8315 -0.4003 0.3852
vn 0.8315 0.4003 -0.3853
vn -0.8315 -0.4003 0.3853
vn -0.0019 0.0024 1.0000
vn -0.0003 0.0171 0.9999
vn 0.0000 0.0246 0.9997
vn 0.0003 0.0171 0.9999
vn 0.0019 0.0024 -1.0000
vn 0.0003 0.0171 -0.9999
vn 0.0000 0.0246 -0.9997
vn -0.0003 0.0171 -0.9999
vn 0.0000 0.0257 -0.9997
usemtl Material
s off
f 17/1/1 20/2/1 24/3/1 21/4/1
f 4/5/2 18/6/2 19/7/2 8/8/2
f 8/8/3 19/7/3 20/9/3 6/10/3
f 6/11/4 2/12/4 4/13/4 8/14/4
f 2/15/5 17/16/5 18/6/5 4/5/5
f 6/17/6 20/18/6 17/16/6 2/15/6
f 19/19/7 18/20/7 22/21/7 23/22/7
f 3/23/8 1/24/8 28/25/8 29/26/8
f 14/27/9 173/28/9 40/29/9
f 173/28/10 32/30/10 23/22/10
f 40/31/11 43/32/11 13/33/11 14/34/11
f 41/35/12 42/36/12 16/37/12 15/38/12
f 1/39/5 3/40/5 18/41/5 17/42/5
f 7/43/3 5/44/3 20/45/3 19/46/3
f 10/47/5 9/48/5 21/49/5 25/50/5 22/51/5
f 11/52/3 12/53/3 23/54/3 26/55/3 24/56/3
f 5/44/3 11/52/3 24/56/3 20/45/3
f 9/48/5 1/39/5 17/42/5 21/49/5
f 3/40/5 10/47/5 22/51/5 18/41/5
f 12/53/3 7/43/3 19/46/3 23/54/3
f 1/24/13 9/57/13 28/25/13
f 10/58/14 29/26/14 28/25/14 9/59/14
f 3/23/15 29/26/15 10/58/15
f 5/60/16 7/61/16 27/62/16 30/63/16
f 12/64/17 11/65/17 30/63/17 27/62/17
f 7/61/18 12/64/18 27/62/18
f 11/66/19 5/60/19 30/63/19
f 24/56/20 26/55/20 23/54/20 32/67/20 33/68/20
f 22/51/21 25/50/21 21/49/21 34/69/21 31/70/21
f 173/28/9 16/71/9 42/72/9
f 33/68/22 32/67/22 37/73/22 36/74/22
f 31/70/23 34/69/23 38/75/23 35/76/23
f 39/77/24 21/4/24 24/3/24
f 13/78/25 15/38/25 16/37/25 14/79/25
f 16/71/9 173/28/9 14/27/9
f 23/22/26 22/21/26 173/28/26
f 21/4/27 39/77/27 34/80/27
f 36/74/28 37/73/28 42/36/28 41/35/28
f 35/76/29 38/75/29 43/32/29 40/31/29
f 56/81/30 55/82/30 71/83/30 72/84/30
f 49/85/31 48/86/31 64/87/31 65/88/31
f 57/89/32 56/81/32 72/84/32 73/90/32
f 50/91/33 49/85/33 65/88/33 66/92/33
f 58/93/34 57/89/34 73/90/34 74/94/34
f 51/95/35 50/91/35 66/92/35 67/96/35
f 59/97/36 58/93/36 74/94/36 75/98/36
f 52/99/37 51/95/37 67/96/37 68/100/37
f 45/101/38 44/102/38 60/103/38 61/104/38
f 44/102/39 59/97/39 75/98/39 60/103/39
f 53/105/40 52/99/40 68/100/40 69/106/40
f 46/107/41 45/101/41 61/104/41 62/108/41
f 54/109/42 53/105/42 69/106/42 70/110/42
f 47/111/43 46/107/43 62/108/43 63/112/43
f 55/82/44 54/109/44 70/110/44 71/83/44
f 48/86/45 47/111/45 63/112/45 64/87/45
f 71/83/46 70/110/46 86/113/46 87/114/46
f 64/87/47 63/112/47 79/115/47 80/116/47
f 72/84/48 71/83/48 87/114/48 88/117/48
f 65/88/49 64/87/49 80/116/49 81/118/49
f 73/90/50 72/84/50 88/117/50 89/119/50
f 66/92/51 65/88/51 81/118/51 82/120/51
f 74/94/52 73/90/52 89/119/52 90/121/52
f 67/96/53 66/92/53 82/120/53 83/122/53
f 75/98/54 74/94/54 90/121/54 91/123/54
f 68/100/55 67/96/55 83/122/55 84/124/55
f 61/104/56 60/103/56 76/125/56 77/126/56
f 60/103/57 75/98/57 91/123/57 76/125/57
f 69/106/58 68/100/58 84/124/58 85/127/58
f 62/108/59 61/104/59 77/126/59 78/128/59
f 70/110/60 69/106/60 85/127/60 86/113/60
f 63/112/61 62/108/61 78/128/61 79/115/61
f 77/126/62 76/125/62 92/129/62 93/130/62
f 76/125/63 91/123/63 107/131/63 92/129/63
f 85/127/64 84/124/64 100/132/64 101/133/64
f 78/128/65 77/126/65 93/130/65 94/134/65
f 86/113/66 85/127/66 101/133/66 102/135/66
f 79/115/67 78/128/67 94/134/67 95/136/67
f 87/114/68 86/113/68 102/135/68 103/137/68
f 80/116/69 79/115/69 95/136/69 96/138/69
f 88/117/70 87/114/70 103/137/70 104/139/70
f 81/118/71 80/116/71 96/138/71 97/140/71
f 89/119/72 88/117/72 104/139/72 105/141/72
f 82/120/73 81/118/73 97/140/73 98/142/73
f 90/121/74 89/119/74 105/141/74 106/143/74
f 83/122/75 82/120/75 98/142/75 99/144/75
f 91/123/76 90/121/76 106/143/76 107/131/76
f 84/124/77 83/122/77 99/144/77 100/132/77
f 98/142/78 97/140/78 108/145/78
f 106/143/78 105/141/78 108/145/78
f 99/144/78 98/142/78 108/145/78
f 107/131/78 106/143/78 108/145/78
f 100/132/78 99/144/78 108/145/78
f 93/130/78 92/129/78 108/145/78
f 92/129/78 107/131/78 108/145/78
f 101/133/78 100/132/78 108/145/78
f 94/134/78 93/130/78 108/145/78
f 102/135/78 101/133/78 108/145/78
f 95/136/78 94/134/78 108/145/78
f 103/137/78 102/135/78 108/145/78
f 96/138/78 95/136/78 108/145/78
f 104/139/78 103/137/78 108/145/78
f 97/140/78 96/138/78 108/145/78
f 105/141/78 104/139/78 108/145/78
f 55/82/79 56/81/79 111/146/79 112/147/79
f 48/86/79 49/85/79 118/148/79 119/149/79
f 56/81/79 57/89/79 110/150/79 111/146/79
f 49/85/79 50/91/79 117/151/79 118/148/79
f 57/89/79 58/93/79 109/152/79 110/150/79
f 50/91/79 51/95/79 116/153/79 117/151/79
f 58/93/79 59/97/79 124/154/79 109/152/79
f 51/95/79 52/99/79 115/155/79 116/153/79
f 44/102/79 45/101/79 122/156/79 123/157/79
f 59/97/79 44/102/79 123/157/79 124/154/79
f 52/99/79 53/105/79 114/158/79 115/155/79
f 45/101/79 46/107/79 121/159/79 122/156/79
f 53/105/79 54/109/79 113/160/79 114/158/79
f 46/107/79 47/111/79 120/161/79 121/159/79
f 54/109/79 55/82/79 112/147/79 113/160/79
f 47/111/79 48/86/79 119/149/79 120/161/79
f 117/151/36 116/153/36 132/162/36 133/163/36
f 111/146/31 110/150/31 126/164/31 127/165/31
f 118/148/34 117/151/34 133/163/34 134/166/34
f 112/147/45 111/146/45 127/165/45 128/167/45
f 119/149/32 118/148/32 134/166/32 135/168/32
f 113/160/80 112/147/80 128/167/80 129/169/80
f 120/161/30 119/149/30 135/168/30 136/170/30
f 114/158/41 113/160/41 129/169/41 130/171/41
f 121/159/44 120/161/44 136/170/44 137/172/44
f 115/155/38 114/158/38 130/171/38 131/173/38
f 124/154/37 123/157/37 139/174/37 140/175/37
f 122/156/42 121/159/42 137/172/42 138/176/42
f 109/152/35 124/154/35 140/175/35 125/177/35
f 123/157/40 122/156/40 138/176/40 139/174/40
f 116/153/39 115/155/39 131/173/39 132/162/39
f 110/150/81 109/152/81 125/177/81 126/164/81
f 138/178/79 137/179/79 153/180/79 154/181/79
f 131/182/79 130/183/79 146/184/79 147/185/79
f 140/186/79 139/187/79 155/188/79 156/189/79
f 139/187/79 138/178/79 154/181/79 155/188/79
f 132/190/79 131/182/79 147/185/79 148/191/79
f 125/192/79 140/186/79 156/189/79 141/193/79
f 133/194/79 132/190/79 148/191/79 149/195/79
f 126/196/79 125/192/79 141/193/79 142/197/79
f 134/198/79 133/194/79 149/195/79 150/199/79
f 127/200/79 126/196/79 142/197/79 143/201/79
f 135/202/79 134/198/79 150/199/79 151/203/79
f 128/204/79 127/200/79 143/201/79 144/205/79
f 136/206/79 135/202/79 151/203/79 152/207/79
f 129/208/79 128/204/79 144/205/79 145/209/79
f 137/179/79 136/206/79 152/207/79 153/180/79
f 130/183/79 129/208/79 145/209/79 146/184/79
f 144/205/30 143/201/30 159/210/30 160/211/30
f 152/207/45 151/203/45 167/212/45 168/213/45
f 145/209/44 144/205/44 160/211/44 161/214/44
f 153/180/43 152/207/43 168/213/43 169/215/43
f 146/184/42 145/209/42 161/214/42 162/216/42
f 154/181/41 153/180/41 169/215/41 170/217/41
f 147/185/40 146/184/40 162/216/40 163/218/40
f 156/189/39 155/188/39 171/219/39 172/220/39
f 155/188/38 154/181/38 170/217/38 171/219/38
f 148/191/37 147/185/37 163/218/37 164/221/37
f 141/193/36 156/189/36 172/220/36 157/222/36
f 149/195/35 148/191/35 164/221/35 165/223/35
f 142/197/82 141/193/82 157/222/82 158/224/82
f 150/199/81 149/195/81 165/223/81 166/225/81
f 143/201/32 142/197/32 158/224/32 159/210/32
f 151/203/31 150/199/31 166/225/31 167/212/31
f 173/28/83 22/21/83 31/226/83
f 31/226/84 35/227/84 173/28/84
f 40/29/85 173/28/85 35/227/85
f 32/30/86 173/28/86 37/228/86
f 42/72/85 37/228/85 173/28/85
f 24/3/87 33/229/87 39/77/87
f 33/229/88 36/230/88 39/77/88
f 41/231/89 39/77/89 36/230/89
f 34/80/90 39/77/90 38/232/90
f 43/233/89 38/232/89 39/77/89
f 43/233/91 39/77/91 13/234/91
f 15/235/91 13/234/91 39/77/91
f 15/235/91 39/77/91 41/231/91
