# Blender v2.83.1 OBJ File: 'y_wall.blend'
# www.blender.org
mtllib y_wall.mtl
o Cube
v 0.250000 5.000000 -6.250000
v 0.250000 0.000000 -6.250000
v 0.250000 5.000000 6.250000
v 0.250000 0.000000 6.250000
v -0.250000 5.000000 -6.250000
v -0.250000 0.000000 -6.250000
v -0.250000 5.000000 6.250000
v -0.250000 0.000000 6.250000
vt 0.123209 0.064088
vt 0.197095 0.137974
vt 0.123209 0.211860
vt 0.049323 0.137974
vt 0.123209 0.359633
vt 0.049323 0.285746
vt 0.197095 0.285747
vt 0.270982 0.211860
vt 0.344868 0.285747
vt 0.270982 0.359633
vt 0.070372 0.954828
vt 0.070372 0.409834
vt 0.919319 0.409834
vt 0.919319 0.954828
vt 0.270982 0.064088
vt 0.344868 0.137974
vn 0.0000 1.0000 0.0000
vn 0.0000 0.0000 1.0000
vn -1.0000 0.0000 0.0000
vn 0.0000 -1.0000 0.0000
vn 1.0000 0.0000 0.0000
vn 0.0000 0.0000 -1.0000
usemtl Material
s off
f 1/1/1 5/2/1 7/3/1 3/4/1
f 4/5/2 3/6/2 7/3/2 8/7/2
f 8/7/3 7/3/3 5/2/3 6/8/3
f 6/8/4 2/9/4 4/10/4 8/7/4
f 2/11/5 1/12/5 3/13/5 4/14/5
f 6/8/6 5/2/6 1/15/6 2/16/6
